<svg xmlns="http://www.w3.org/2000/svg" viewBox="0 0 128 128">
  <defs>
    <radialGradient id="bg" cx="30%" cy="28%" r="82%">
      <stop offset="0%" stop-color="#fff5ef" />
      <stop offset="100%" stop-color="#f1d8be" />
    </radialGradient>
    <linearGradient id="ring" x1="0%" y1="0%" x2="100%" y2="100%">
      <stop offset="0%" stop-color="#f6d27a" />
      <stop offset="100%" stop-color="#c98e2a" />
    </linearGradient>
    <linearGradient id="heart" x1="0%" y1="0%" x2="100%" y2="100%">
      <stop offset="0%" stop-color="#d9253f" />
      <stop offset="100%" stop-color="#9d0f2a" />
    </linearGradient>
  </defs>

  <rect x="4" y="4" width="120" height="120" rx="28" fill="url(#bg)" />

  <circle cx="50" cy="76" r="22" fill="none" stroke="url(#ring)" stroke-width="8" />
  <circle cx="78" cy="76" r="22" fill="none" stroke="url(#ring)" stroke-width="8" />

  <path
    d="M64 56c0-7 5.4-12 12-12 5.8 0 9.2 3.3 10.9 6.5C88.6 47.3 92 44 97.8 44 104.4 44 110 49 110 56c0 13-15.6 20.6-26 28.8C73.6 76.6 58 69 58 56c0-7 5.6-12 12-12 6.6 0 12 5 12 12 0 2.8-.9 5.3-2.3 7.2"
    fill="url(#heart)"
    transform="translate(-20 -22) scale(0.92)"
  />

  <circle cx="94" cy="26" r="5" fill="#fff7ea" opacity="0.86" />
</svg>
